<svg width="20" height="21" viewBox="0 0 20 21" fill="none" xmlns="http://www.w3.org/2000/svg">
<path fill-rule="evenodd" clip-rule="evenodd" d="M9.99963 14.584C10.7356 14.584 11.4076 14.408 12.0156 14.056C12.6236 13.704 13.1116 13.224 13.4796 12.616H15.1116C14.7116 13.656 14.0516 14.492 13.1316 15.124C12.2116 15.756 11.1676 16.072 9.99963 16.072C8.83163 16.072 7.78764 15.756 6.86763 15.124C5.94763 14.492 5.28764 13.656 4.88763 12.616H6.54363C6.89564 13.224 7.37563 13.704 7.98363 14.056C8.59164 14.408 9.26363 14.584 9.99963 14.584ZM9.99964 18.616C11.4396 18.616 12.7836 18.248 14.0316 17.512C15.2476 16.808 16.2076 15.848 16.9116 14.632C17.6476 13.384 18.0156 12.04 18.0156 10.6C18.0156 9.15996 17.6476 7.81597 16.9116 6.56797C16.2076 5.35196 15.2476 4.39197 14.0316 3.68797C12.7836 2.95196 11.4396 2.58397 9.99964 2.58397C8.55964 2.58397 7.21565 2.95196 5.96764 3.68797C4.75164 4.39197 3.79165 5.35196 3.08764 6.56797C2.35164 7.81597 1.98364 9.15996 1.98364 10.6C1.98364 12.04 2.35164 13.384 3.08764 14.632C3.79165 15.848 4.75164 16.808 5.96764 17.512C7.21565 18.248 8.55964 18.616 9.99964 18.616ZM9.99963 0.615967C11.8236 0.615967 13.5116 1.07196 15.0636 1.98397C16.5676 2.84797 17.7516 4.03196 18.6156 5.53597C19.5276 7.08797 19.9836 8.77596 19.9836 10.6C19.9836 12.424 19.5276 14.112 18.6156 15.664C17.7516 17.168 16.5676 18.352 15.0636 19.216C13.5116 20.128 11.8236 20.584 9.99963 20.584C8.17562 20.584 6.48763 20.128 4.93563 19.216C3.43162 18.336 2.24763 17.144 1.38363 15.64C0.471621 14.088 0.015625 12.408 0.015625 10.6C0.015625 8.79196 0.471621 7.11197 1.38363 5.55997C2.26363 4.05596 3.45562 2.86397 4.95962 1.98397C6.51163 1.07196 8.19162 0.615967 9.99963 0.615967ZM4.98364 8.10397C4.98364 7.68796 5.12764 7.33597 5.41564 7.04797C5.70364 6.75997 6.06364 6.61597 6.49564 6.61597C6.92764 6.61597 7.28364 6.75997 7.56364 7.04797C7.84364 7.33597 7.98364 7.68796 7.98364 8.10397C7.98364 8.51997 7.83964 8.87597 7.55164 9.17197C7.26364 9.46797 6.91164 9.61597 6.49564 9.61597C6.07964 9.61597 5.72364 9.47197 5.42764 9.18397C5.13164 8.89597 4.98364 8.53597 4.98364 8.10397ZM12.0156 8.10397C12.0156 7.68796 12.1596 7.33597 12.4476 7.04797C12.7356 6.75997 13.0956 6.61597 13.5276 6.61597C13.9596 6.61597 14.3156 6.75997 14.5956 7.04797C14.8756 7.33597 15.0156 7.68796 15.0156 8.10397C15.0156 8.51997 14.8716 8.87597 14.5836 9.17197C14.2956 9.46797 13.9436 9.61597 13.5276 9.61597C13.1116 9.61597 12.7556 9.47197 12.4596 9.18397C12.1636 8.89597 12.0156 8.53597 12.0156 8.10397Z" fill="#9A9FBF"/>
</svg>
