<svg width="339" height="362" viewBox="0 0 339 362" fill="none" xmlns="http://www.w3.org/2000/svg">
<path d="M271.5 90.5C274.832 90.5 277.533 87.7988 277.533 84.4667C277.533 81.1346 274.832 78.4333 271.5 78.4333C268.168 78.4333 265.467 81.1346 265.467 84.4667C265.467 87.7988 268.168 90.5 271.5 90.5Z" fill="url(#paint0_linear)"/>
<path d="M307.7 84.4667C307.7 87.7988 304.999 90.5 301.667 90.5C298.335 90.5 295.633 87.7988 295.633 84.4667C295.633 81.1346 298.335 78.4333 301.667 78.4333C304.999 78.4333 307.7 81.1346 307.7 84.4667Z" fill="url(#paint1_linear)"/>
<path fill-rule="evenodd" clip-rule="evenodd" d="M325.8 0H229.267C222.602 0 217.2 5.40243 217.2 12.0667V24.1333C217.218 39.4591 226.884 53.1131 241.333 58.2217V90.5C241.333 123.821 268.345 150.833 301.667 150.833C334.988 150.833 362 123.821 362 90.5V36.2C361.98 16.2156 345.784 0.0199545 325.8 0ZM229.267 24.1333V12.0667H325.8C339.128 12.0667 349.933 22.8715 349.933 36.2V48.2667H253.4C240.072 48.2667 229.267 37.4618 229.267 24.1333ZM349.933 90.5C349.969 108.032 340.476 124.198 325.15 132.71C309.823 141.221 291.081 140.733 276.218 131.436H276.701C293.408 132.033 309.485 125.024 320.418 112.377C321.774 110.7 322.132 108.427 321.358 106.414C320.583 104.402 318.794 102.955 316.664 102.619C314.534 102.284 312.386 103.11 311.03 104.787C298.879 119.816 277.286 121.729 261.557 117.24C256.243 109.334 253.404 100.025 253.4 90.5V60.3333H349.933L349.933 90.5Z" fill="url(#paint2_linear)"/>
<path d="M96.5333 295.633C96.5333 298.965 93.8321 301.667 90.5 301.667C87.1679 301.667 84.4667 298.965 84.4667 295.633C84.4667 292.301 87.1679 289.6 90.5 289.6C93.8321 289.6 96.5333 292.301 96.5333 295.633Z" fill="url(#paint3_linear)"/>
<path d="M60.3333 301.667C63.6654 301.667 66.3667 298.965 66.3667 295.633C66.3667 292.301 63.6654 289.6 60.3333 289.6C57.0012 289.6 54.3 292.301 54.3 295.633C54.3 298.965 57.0012 301.667 60.3333 301.667Z" fill="url(#paint4_linear)"/>
<path fill-rule="evenodd" clip-rule="evenodd" d="M132.733 211.167H36.2C16.2156 211.187 0.0199545 227.382 0 247.367V301.667C0 334.988 27.0122 362 60.3333 362C93.6545 362 120.667 334.988 120.667 301.667V269.388C135.116 264.28 144.782 250.626 144.8 235.3V223.233C144.8 216.569 139.398 211.167 132.733 211.167ZM108.6 301.667C108.609 311.195 105.78 320.51 100.473 328.425C84.714 332.907 63.1207 331.001 50.9998 315.972C48.9039 313.379 45.1033 312.977 42.5109 315.073C39.9185 317.169 39.516 320.969 41.6119 323.562C52.5464 336.207 68.6227 343.216 85.3294 342.621H85.8121C70.9445 351.936 52.1881 352.431 36.8499 343.913C21.5116 335.395 12.0177 319.211 12.0667 301.667L12.0665 271.5H108.6L108.6 301.667ZM132.733 235.3C132.733 248.628 121.928 259.433 108.6 259.433H12.0667V247.367C12.0667 234.038 22.8715 223.233 36.2 223.233H132.733V235.3Z" fill="url(#paint5_linear)"/>
<path d="M0.0904842 108.63C0.107145 111.962 2.82187 114.65 6.15398 114.633C9.4861 114.633 12.1873 111.932 12.1873 108.6C12.1873 105.268 9.4861 102.567 6.15398 102.567H6.09365C2.76153 102.583 0.0738236 105.298 0.0904842 108.63Z" fill="url(#paint6_linear)"/>
<path d="M32.6886 194.448C37.1163 196.887 42.5993 196.279 46.3843 192.928L80.6958 162.9H174.967C191.619 162.88 205.113 149.386 205.133 132.733V48.2667C205.113 31.6144 191.619 18.12 174.967 18.1H30.1667C13.5143 18.12 0.0199469 31.6144 0 48.2667V84.4667C0 87.7988 2.70122 90.5 6.03333 90.5C9.36545 90.5 12.0667 87.7988 12.0667 84.4667V48.2667C12.0667 38.2703 20.1703 30.1667 30.1667 30.1667H174.967C184.963 30.1667 193.067 38.2703 193.067 48.2667V132.733C193.067 142.73 184.963 150.833 174.967 150.833H78.4333C76.9712 150.832 75.5583 151.361 74.4574 152.324L38.4384 183.848L42.173 157.723C42.4215 155.991 41.9058 154.237 40.7596 152.915C39.6134 151.593 37.9498 150.833 36.2 150.833H30.1667C20.1703 150.833 12.0667 142.73 12.0667 132.733C12.0667 129.401 9.36545 126.7 6.03333 126.7C2.70122 126.7 0 129.401 0 132.733C0.011312 149.032 12.9528 162.382 29.2436 162.9L26.4984 182.146C25.7546 187.143 28.2327 192.068 32.6886 194.448Z" fill="url(#paint7_linear)"/>
<path d="M199.1 247.367H217.2C220.532 247.367 223.233 244.665 223.233 241.333C223.233 238.001 220.532 235.3 217.2 235.3H199.1C195.768 235.3 193.067 238.001 193.067 241.333C193.067 244.665 195.768 247.367 199.1 247.367Z" fill="url(#paint8_linear)"/>
<path d="M241.333 235.3H319.767C323.099 235.3 325.8 238.001 325.8 241.333C325.8 244.665 323.099 247.367 319.767 247.367H241.333C238.001 247.367 235.3 244.665 235.3 241.333C235.3 238.001 238.001 235.3 241.333 235.3Z" fill="url(#paint9_linear)"/>
<path d="M217.2 295.633H199.1C195.768 295.633 193.067 298.335 193.067 301.667C193.067 304.999 195.768 307.7 199.1 307.7H217.2C220.532 307.7 223.233 304.999 223.233 301.667C223.233 298.335 220.532 295.633 217.2 295.633Z" fill="url(#paint10_linear)"/>
<path d="M241.333 295.633H319.767C323.099 295.633 325.8 298.335 325.8 301.667C325.8 304.999 323.099 307.7 319.767 307.7H241.333C238.001 307.7 235.3 304.999 235.3 301.667C235.3 298.335 238.001 295.633 241.333 295.633Z" fill="url(#paint11_linear)"/>
<path d="M319.767 265.467H301.667C298.335 265.467 295.633 268.168 295.633 271.5C295.633 274.832 298.335 277.533 301.667 277.533H319.767C323.099 277.533 325.8 274.832 325.8 271.5C325.8 268.168 323.099 265.467 319.767 265.467Z" fill="url(#paint12_linear)"/>
<path d="M277.533 277.533H199.1C195.768 277.533 193.067 274.832 193.067 271.5C193.067 268.168 195.768 265.467 199.1 265.467H277.533C280.865 265.467 283.567 268.168 283.567 271.5C283.567 274.832 280.865 277.533 277.533 277.533Z" fill="url(#paint13_linear)"/>
<path fill-rule="evenodd" clip-rule="evenodd" d="M335.502 179.854L332.756 199.1C349.047 199.618 361.989 212.968 362 229.267V313.733C361.98 330.386 348.486 343.88 331.833 343.9H187.033C170.381 343.88 156.887 330.386 156.867 313.733V229.267C156.887 212.614 170.381 199.12 187.033 199.1H281.304L315.592 169.06C319.389 165.721 324.865 165.103 329.311 167.513C333.756 169.923 336.228 174.849 335.502 179.854ZM331.833 331.833C341.83 331.833 349.933 323.73 349.933 313.733V229.267C349.933 219.27 341.83 211.167 331.833 211.167H325.8C324.05 211.167 322.387 210.408 321.24 209.085C320.094 207.763 319.579 206.009 319.827 204.277L323.562 178.152L287.543 209.676C286.442 210.639 285.029 211.168 283.567 211.167H187.033C177.037 211.167 168.933 219.27 168.933 229.267V313.733C168.933 323.73 177.037 331.833 187.033 331.833H331.833Z" fill="url(#paint14_linear)"/>
<path d="M42.2333 66.3667H60.3333C63.6655 66.3667 66.3667 63.6655 66.3667 60.3333C66.3667 57.0012 63.6655 54.3 60.3333 54.3H42.2333C38.9012 54.3 36.2 57.0012 36.2 60.3333C36.2 63.6655 38.9012 66.3667 42.2333 66.3667Z" fill="url(#paint15_linear)"/>
<path d="M84.4667 54.3H162.9C166.232 54.3 168.933 57.0012 168.933 60.3333C168.933 63.6655 166.232 66.3667 162.9 66.3667H84.4667C81.1346 66.3667 78.4333 63.6655 78.4333 60.3333C78.4333 57.0012 81.1346 54.3 84.4667 54.3Z" fill="url(#paint16_linear)"/>
<path d="M42.2333 126.7H60.3333C63.6655 126.7 66.3667 123.999 66.3667 120.667C66.3667 117.335 63.6655 114.633 60.3333 114.633H42.2333C38.9012 114.633 36.2 117.335 36.2 120.667C36.2 123.999 38.9012 126.7 42.2333 126.7Z" fill="url(#paint17_linear)"/>
<path d="M84.4667 114.633H162.9C166.232 114.633 168.933 117.335 168.933 120.667C168.933 123.999 166.232 126.7 162.9 126.7H84.4667C81.1346 126.7 78.4333 123.999 78.4333 120.667C78.4333 117.335 81.1346 114.633 84.4667 114.633Z" fill="url(#paint18_linear)"/>
<path d="M162.9 84.4667H144.8C141.468 84.4667 138.767 87.1679 138.767 90.5C138.767 93.8321 141.468 96.5333 144.8 96.5333H162.9C166.232 96.5333 168.933 93.8321 168.933 90.5C168.933 87.1679 166.232 84.4667 162.9 84.4667Z" fill="url(#paint19_linear)"/>
<path d="M120.667 96.5333H42.2333C38.9012 96.5333 36.2 93.8321 36.2 90.5C36.2 87.1679 38.9012 84.4667 42.2333 84.4667H120.667C123.999 84.4667 126.7 87.1679 126.7 90.5C126.7 93.8321 123.999 96.5333 120.667 96.5333Z" fill="url(#paint20_linear)"/>
<defs>
<linearGradient id="paint0_linear" x1="181" y1="0" x2="181" y2="362" gradientUnits="userSpaceOnUse">
<stop stop-color="#1890FF"/>
<stop offset="1" stop-color="#1890FF" stop-opacity="0"/>
</linearGradient>
<linearGradient id="paint1_linear" x1="181" y1="0" x2="181" y2="362" gradientUnits="userSpaceOnUse">
<stop stop-color="#1890FF"/>
<stop offset="1" stop-color="#1890FF" stop-opacity="0"/>
</linearGradient>
<linearGradient id="paint2_linear" x1="181" y1="0" x2="181" y2="362" gradientUnits="userSpaceOnUse">
<stop stop-color="#1890FF"/>
<stop offset="1" stop-color="#1890FF" stop-opacity="0"/>
</linearGradient>
<linearGradient id="paint3_linear" x1="181" y1="0" x2="181" y2="362" gradientUnits="userSpaceOnUse">
<stop stop-color="#1890FF"/>
<stop offset="1" stop-color="#1890FF" stop-opacity="0"/>
</linearGradient>
<linearGradient id="paint4_linear" x1="181" y1="0" x2="181" y2="362" gradientUnits="userSpaceOnUse">
<stop stop-color="#1890FF"/>
<stop offset="1" stop-color="#1890FF" stop-opacity="0"/>
</linearGradient>
<linearGradient id="paint5_linear" x1="181" y1="0" x2="181" y2="362" gradientUnits="userSpaceOnUse">
<stop stop-color="#1890FF"/>
<stop offset="1" stop-color="#1890FF" stop-opacity="0"/>
</linearGradient>
<linearGradient id="paint6_linear" x1="181" y1="0" x2="181" y2="362" gradientUnits="userSpaceOnUse">
<stop stop-color="#1890FF"/>
<stop offset="1" stop-color="#1890FF" stop-opacity="0"/>
</linearGradient>
<linearGradient id="paint7_linear" x1="181" y1="0" x2="181" y2="362" gradientUnits="userSpaceOnUse">
<stop stop-color="#1890FF"/>
<stop offset="1" stop-color="#1890FF" stop-opacity="0"/>
</linearGradient>
<linearGradient id="paint8_linear" x1="181" y1="0" x2="181" y2="362" gradientUnits="userSpaceOnUse">
<stop stop-color="#1890FF"/>
<stop offset="1" stop-color="#1890FF" stop-opacity="0"/>
</linearGradient>
<linearGradient id="paint9_linear" x1="181" y1="0" x2="181" y2="362" gradientUnits="userSpaceOnUse">
<stop stop-color="#1890FF"/>
<stop offset="1" stop-color="#1890FF" stop-opacity="0"/>
</linearGradient>
<linearGradient id="paint10_linear" x1="181" y1="0" x2="181" y2="362" gradientUnits="userSpaceOnUse">
<stop stop-color="#1890FF"/>
<stop offset="1" stop-color="#1890FF" stop-opacity="0"/>
</linearGradient>
<linearGradient id="paint11_linear" x1="181" y1="0" x2="181" y2="362" gradientUnits="userSpaceOnUse">
<stop stop-color="#1890FF"/>
<stop offset="1" stop-color="#1890FF" stop-opacity="0"/>
</linearGradient>
<linearGradient id="paint12_linear" x1="181" y1="0" x2="181" y2="362" gradientUnits="userSpaceOnUse">
<stop stop-color="#1890FF"/>
<stop offset="1" stop-color="#1890FF" stop-opacity="0"/>
</linearGradient>
<linearGradient id="paint13_linear" x1="181" y1="0" x2="181" y2="362" gradientUnits="userSpaceOnUse">
<stop stop-color="#1890FF"/>
<stop offset="1" stop-color="#1890FF" stop-opacity="0"/>
</linearGradient>
<linearGradient id="paint14_linear" x1="181" y1="0" x2="181" y2="362" gradientUnits="userSpaceOnUse">
<stop stop-color="#1890FF"/>
<stop offset="1" stop-color="#1890FF" stop-opacity="0"/>
</linearGradient>
<linearGradient id="paint15_linear" x1="181" y1="0" x2="181" y2="362" gradientUnits="userSpaceOnUse">
<stop stop-color="#1890FF"/>
<stop offset="1" stop-color="#1890FF" stop-opacity="0"/>
</linearGradient>
<linearGradient id="paint16_linear" x1="181" y1="0" x2="181" y2="362" gradientUnits="userSpaceOnUse">
<stop stop-color="#1890FF"/>
<stop offset="1" stop-color="#1890FF" stop-opacity="0"/>
</linearGradient>
<linearGradient id="paint17_linear" x1="181" y1="0" x2="181" y2="362" gradientUnits="userSpaceOnUse">
<stop stop-color="#1890FF"/>
<stop offset="1" stop-color="#1890FF" stop-opacity="0"/>
</linearGradient>
<linearGradient id="paint18_linear" x1="181" y1="0" x2="181" y2="362" gradientUnits="userSpaceOnUse">
<stop stop-color="#1890FF"/>
<stop offset="1" stop-color="#1890FF" stop-opacity="0"/>
</linearGradient>
<linearGradient id="paint19_linear" x1="181" y1="0" x2="181" y2="362" gradientUnits="userSpaceOnUse">
<stop stop-color="#1890FF"/>
<stop offset="1" stop-color="#1890FF" stop-opacity="0"/>
</linearGradient>
<linearGradient id="paint20_linear" x1="181" y1="0" x2="181" y2="362" gradientUnits="userSpaceOnUse">
<stop stop-color="#1890FF"/>
<stop offset="1" stop-color="#1890FF" stop-opacity="0"/>
</linearGradient>
</defs>
</svg>
