<svg width="24" height="24" viewBox="0 0 24 24" fill="none" xmlns="http://www.w3.org/2000/svg">
<path d="M20.9523 10.8283C21.6765 10.8283 21.9789 9.89783 21.3906 9.46892L12.4398 2.95798C12.312 2.86433 12.1576 2.81384 11.9992 2.81384C11.8407 2.81384 11.6864 2.86433 11.5585 2.95798L2.60776 9.46892C2.01948 9.89548 2.32182 10.8283 3.04839 10.8283H4.49917V19.5939H2.81167C2.70854 19.5939 2.62417 19.6783 2.62417 19.7814V21.0002C2.62417 21.1033 2.70854 21.1877 2.81167 21.1877H21.1867C21.2898 21.1877 21.3742 21.1033 21.3742 21.0002V19.7814C21.3742 19.6783 21.2898 19.5939 21.1867 19.5939H19.4992V10.8283H20.9523ZM8.92886 19.5939H6.18667V10.8283H8.92886V19.5939ZM13.3585 19.5939H10.6164V10.8283H13.3585V19.5939ZM17.8117 19.5939H15.046V10.8283H17.8117V19.5939Z" fill="#1890FF"/>
</svg>
