<svg width="24" height="19" viewBox="0 0 24 19" fill="none" xmlns="http://www.w3.org/2000/svg">
<path fill-rule="evenodd" clip-rule="evenodd" d="M12.2554 15.616C13.3061 15.616 14.2737 15.392 15.1585 14.944C16.0432 14.496 16.7436 13.888 17.2597 13.12C17.7758 12.352 18.0339 11.512 18.0339 10.6C18.0339 9.68796 17.7758 8.84797 17.2597 8.07997C16.7436 7.31196 16.0432 6.70397 15.1585 6.25597C14.2737 5.80796 13.3061 5.58397 12.2554 5.58397C11.2048 5.58397 10.2371 5.80796 9.3524 6.25597C8.46766 6.70397 7.76725 7.31196 7.25115 8.07997C6.73505 8.84797 6.47701 9.68796 6.47701 10.6C6.47701 11.512 6.73505 12.352 7.25115 13.12C7.76725 13.888 8.46766 14.496 9.3524 14.944C10.2371 15.392 11.2048 15.616 12.2554 15.616ZM8.79948 0.615967H15.7115L17.8127 2.58397H21.4899C22.1166 2.58397 22.6511 2.78396 23.0935 3.18397C23.5359 3.58397 23.757 4.05596 23.757 4.59997V16.6C23.757 17.144 23.5359 17.616 23.0935 18.016C22.6511 18.416 22.1166 18.616 21.4899 18.616H3.02104C2.39435 18.616 1.85983 18.416 1.41746 18.016C0.975088 17.616 0.753906 17.144 0.753906 16.6V4.59997C0.753906 4.05596 0.975088 3.58397 1.41746 3.18397C1.85983 2.78396 2.39435 2.58397 3.02104 2.58397H6.69823L8.79948 0.615967ZM8.57829 10.6C8.57829 10.024 8.74418 9.49197 9.07595 9.00397C9.40773 8.51596 9.8547 8.12797 10.4169 7.83997C10.9791 7.55197 11.5919 7.40797 12.2555 7.40797C12.919 7.40797 13.5319 7.55197 14.0941 7.83997C14.6562 8.12797 15.1032 8.51596 15.435 9.00397C15.7668 9.49197 15.9327 10.024 15.9327 10.6C15.9327 11.176 15.7668 11.708 15.435 12.196C15.1032 12.684 14.6562 13.072 14.0941 13.36C13.5319 13.648 12.919 13.792 12.2555 13.792C11.5919 13.792 10.9791 13.648 10.4169 13.36C9.8547 13.072 9.40773 12.684 9.07595 12.196C8.74418 11.708 8.57829 11.176 8.57829 10.6Z" fill="#9A9FBF"/>
</svg>
