<svg width="14" height="20" viewBox="0 0 14 20" fill="none" xmlns="http://www.w3.org/2000/svg">
<path fill-rule="evenodd" clip-rule="evenodd" d="M12.3036 9.6001H13.9836C13.9836 10.7201 13.7116 11.7761 13.1676 12.7681C12.6396 13.7121 11.9156 14.5001 10.9956 15.1321C10.0756 15.7641 9.07163 16.1521 7.98362 16.2961V19.5841H6.01562V16.2961C4.92762 16.1521 3.92363 15.7641 3.00362 15.1321C2.08362 14.5001 1.35963 13.7121 0.831625 12.7681C0.287622 11.7761 0.015625 10.7201 0.015625 9.6001H1.69562C1.69562 10.5761 1.95162 11.4641 2.46362 12.2641C2.94363 13.0161 3.58762 13.6121 4.39563 14.0521C5.20363 14.4921 6.07162 14.7121 6.99963 14.7121C7.92763 14.7121 8.79562 14.4921 9.60363 14.0521C10.4116 13.6121 11.0556 13.0161 11.5356 12.2641C12.0476 11.4641 12.3036 10.5761 12.3036 9.6001ZM6.99963 12.6001C6.47163 12.6001 5.97564 12.4641 5.51163 12.1921C5.04763 11.9201 4.67964 11.5521 4.40763 11.0881C4.13563 10.6241 3.99963 10.1281 3.99963 9.6001V3.6001C3.99963 3.07209 4.13563 2.5761 4.40763 2.1121C4.67964 1.6481 5.04763 1.2801 5.51163 1.0081C5.97564 0.736096 6.47163 0.600098 6.99963 0.600098C7.52764 0.600098 8.02363 0.736096 8.48763 1.0081C8.95164 1.2801 9.31963 1.6481 9.59163 2.1121C9.86364 2.5761 9.99963 3.07209 9.99963 3.6001V9.6001C9.99963 10.1281 9.86364 10.6241 9.59163 11.0881C9.31963 11.5521 8.95164 11.9201 8.48763 12.1921C8.02363 12.4641 7.52764 12.6001 6.99963 12.6001Z" fill="#9A9FBF"/>
</svg>
