<svg width="176" height="74" viewBox="0 0 176 74" fill="none" xmlns="http://www.w3.org/2000/svg">
<path d="M0 34.7043C0 44.6906 6.87335 51.2774 16.7937 51.2774C26.7848 51.2774 33.7999 43.6283 33.7999 34.4918V0H22.6041V34.2085C22.6041 37.9622 20.4075 40.6536 16.7228 40.6536C13.4633 40.6536 10.6289 38.5997 10.6289 34.1377V29.5341L0 31.3755V34.7043Z" fill="#1890FF"/>
<path d="M57.4215 63.7426L79.1044 15.0149H67.6961L59.9016 33.8544L51.3276 15.0149H39.2815L54.0911 45.4697L46.084 63.7426H57.4215Z" fill="#1890FF"/>
<path d="M106.961 15.0149C106.252 14.8024 105.19 14.6608 104.127 14.6608C101.292 14.6608 96.8281 15.794 94.9858 19.7602V15.0149H84.5695V50.215H95.3401V34.8459C95.3401 27.8343 99.2373 25.2846 103.56 25.2846C104.623 25.2846 105.756 25.3554 106.961 25.6387V15.0149Z" fill="#1890FF"/>
<path d="M129.235 41.3618C125.196 41.3618 121.299 38.458 121.299 32.5795C121.299 26.6302 125.196 23.8681 129.235 23.8681C133.345 23.8681 137.171 26.6302 137.171 32.5795C137.171 38.5288 133.345 41.3618 129.235 41.3618ZM129.235 13.9525C118.748 13.9525 110.528 21.6725 110.528 32.5795C110.528 43.4866 118.748 51.2774 129.235 51.2774C139.793 51.2774 147.942 43.4866 147.942 32.5795C147.942 21.6725 139.793 13.9525 129.235 13.9525Z" fill="#1890FF"/>
<path d="M109.389 64.5044C109.113 63.0714 107.881 61.2413 104.627 61.2413C102.126 61.2413 99.9566 62.8642 99.9566 65.1777C99.9566 66.9905 101.299 68.3717 103.505 68.7687L105.289 69.0795C106.153 69.2349 106.686 69.6838 106.686 70.3053C106.686 71.065 105.987 71.5829 104.847 71.5829C103.064 71.5829 102.255 70.5988 102.145 69.4766L99.4785 70.0809C99.6624 71.8073 101.207 74 104.811 74C107.918 74 109.628 72.049 109.628 70.1327C109.628 68.3889 108.341 66.8869 105.859 66.4553L104.112 66.1445C103.211 65.9891 102.825 65.5575 102.825 64.9705C102.825 64.2972 103.524 63.6584 104.608 63.6584C106.19 63.6584 106.686 64.6252 106.778 65.195L109.389 64.5044Z" fill="black"/>
<path d="M115.016 62.657H112.516V63.762C112.516 64.5562 112.056 65.1604 111.1 65.1604H110.64V67.4566H112.258V71.134C112.258 72.8432 113.417 73.8964 115.311 73.8964C116.193 73.8964 116.653 73.7065 116.763 73.6547V71.4793C116.598 71.5138 116.322 71.5656 116.028 71.5656C115.421 71.5656 115.016 71.3757 115.016 70.6679V67.4566H116.8V65.1604H115.016V62.657Z" fill="black"/>
<path d="M122.865 71.5829C121.817 71.5829 120.805 70.875 120.805 69.4421C120.805 67.9918 121.817 67.3185 122.865 67.3185C123.931 67.3185 124.924 67.9918 124.924 69.4421C124.924 70.8923 123.931 71.5829 122.865 71.5829ZM122.865 64.9015C120.144 64.9015 118.011 66.7833 118.011 69.4421C118.011 72.1008 120.144 74 122.865 74C125.604 74 127.719 72.1008 127.719 69.4421C127.719 66.7833 125.604 64.9015 122.865 64.9015Z" fill="black"/>
<path d="M135.328 65.1604C135.144 65.1086 134.868 65.0741 134.592 65.0741C133.857 65.0741 132.699 65.3503 132.221 66.3172V65.1604H129.518V73.741H132.312V69.9945C132.312 68.2853 133.324 67.6638 134.445 67.6638C134.721 67.6638 135.015 67.6811 135.328 67.7501V65.1604Z" fill="black"/>
<path d="M139.03 68.4235C139.085 67.7847 139.673 66.9732 140.85 66.9732C142.174 66.9732 142.652 67.7674 142.689 68.4235H139.03ZM142.891 70.6506C142.634 71.3239 142.064 71.7728 141.052 71.7728C139.968 71.7728 139.03 71.0822 138.975 70.1154H145.336C145.355 70.0636 145.392 69.6665 145.392 69.304C145.392 66.5416 143.645 64.9015 140.813 64.9015C138.441 64.9015 136.254 66.6625 136.254 69.4248C136.254 72.308 138.497 74 141.016 74C143.332 74 144.785 72.7569 145.226 71.2721L142.891 70.6506Z" fill="black"/>
</svg>
